<svg xmlns="http://www.w3.org/2000/svg" xmlns:xlink="http://www.w3.org/1999/xlink" width="1201" zoomAndPan="magnify" viewBox="0 0 900.75 620.249985" height="827" preserveAspectRatio="xMidYMid meet" version="1.0"><defs><g/><clipPath id="52edf784de"><rect x="0" width="837" y="0" height="58"/></clipPath></defs><g fill="#3d3b3a" fill-opacity="1"><g transform="translate(335.013438, 388.520306)"><g><path d="M 124.5 -30.609375 C 125.882812 -28.972656 126.195312 -27.300781 125.4375 -25.59375 C 124.6875 -23.894531 123.429688 -23.046875 121.671875 -23.046875 C 120.160156 -23.046875 119.4375 -23.484375 119.5 -24.359375 C 119.5625 -25.242188 119.59375 -25.753906 119.59375 -25.890625 C 119.71875 -27.523438 117.953125 -29.066406 114.296875 -30.515625 C 110.648438 -31.960938 105.863281 -33.285156 99.9375 -34.484375 C 94.019531 -35.679688 87.691406 -36.75 80.953125 -37.6875 C 74.210938 -38.632812 67.882812 -39.453125 61.96875 -40.140625 C 56.050781 -40.835938 51.265625 -41.4375 47.609375 -41.9375 C 47.109375 -40.425781 46.351562 -37.90625 45.34375 -34.375 C 44.332031 -30.851562 43.289062 -27.015625 42.21875 -22.859375 C 41.15625 -18.703125 40.335938 -14.921875 39.765625 -11.515625 C 39.203125 -8.117188 39.171875 -5.789062 39.671875 -4.53125 C 40.046875 -3.519531 39.820312 -2.570312 39 -1.6875 C 38.1875 -0.8125 37.210938 -0.25 36.078125 0 C 34.953125 0.25 34.195312 -0.128906 33.8125 -1.140625 C 33.3125 -3.023438 33.34375 -5.789062 33.90625 -9.4375 C 34.476562 -13.09375 35.328125 -17.0625 36.453125 -21.34375 C 37.585938 -25.625 38.753906 -29.6875 39.953125 -33.53125 C 41.148438 -37.375 42.128906 -40.429688 42.890625 -42.703125 C 42.003906 -42.953125 41.117188 -43.140625 40.234375 -43.265625 C 39.359375 -43.390625 38.414062 -43.515625 37.40625 -43.640625 C 34.382812 -44.273438 33 -45.503906 33.25 -47.328125 C 33.5 -49.148438 34.882812 -50.566406 37.40625 -51.578125 C 38.789062 -52.203125 40.332031 -52.859375 42.03125 -53.546875 C 43.738281 -54.242188 45.535156 -55.035156 47.421875 -55.921875 C 48.429688 -58.691406 49.847656 -62.59375 51.671875 -67.625 C 53.492188 -72.664062 55.664062 -78.367188 58.1875 -84.734375 C 60.707031 -91.097656 63.382812 -97.644531 66.21875 -104.375 C 69.050781 -111.113281 71.914062 -117.566406 74.8125 -123.734375 C 77.707031 -129.910156 80.539062 -135.328125 83.3125 -139.984375 C 86.082031 -144.648438 88.601562 -148.054688 90.875 -150.203125 C 92.507812 -151.835938 94.175781 -152.625 95.875 -152.5625 C 97.582031 -152.5 98.117188 -151.582031 97.484375 -149.8125 C 96.984375 -148.300781 96.257812 -147.453125 95.3125 -147.265625 C 94.363281 -147.078125 93.765625 -146.921875 93.515625 -146.796875 C 91.878906 -145.785156 89.863281 -143.203125 87.46875 -139.046875 C 85.082031 -134.890625 82.46875 -129.820312 79.625 -123.84375 C 76.789062 -117.863281 73.957031 -111.503906 71.125 -104.765625 C 68.289062 -98.023438 65.644531 -91.535156 63.1875 -85.296875 C 60.738281 -79.066406 58.628906 -73.585938 56.859375 -68.859375 C 55.097656 -64.140625 53.90625 -60.832031 53.28125 -58.9375 C 64.613281 -64.863281 75.472656 -71.921875 85.859375 -80.109375 C 96.253906 -88.296875 105.828125 -97.238281 114.578125 -106.9375 C 123.335938 -116.632812 130.800781 -126.769531 136.96875 -137.34375 C 143.519531 -148.425781 147.363281 -157.617188 148.5 -164.921875 C 149.632812 -172.234375 148.125 -177.179688 143.96875 -179.765625 C 139.8125 -182.347656 133.101562 -182.0625 123.84375 -178.90625 C 114.582031 -175.757812 102.835938 -169.273438 88.609375 -159.453125 C 79.035156 -152.898438 69.835938 -145.71875 61.015625 -137.90625 C 52.203125 -130.101562 44.144531 -122.390625 36.84375 -114.765625 C 29.539062 -107.148438 23.367188 -100.191406 18.328125 -93.890625 C 17.066406 -92.378906 15.582031 -90.425781 13.875 -88.03125 C 12.175781 -85.644531 10.601562 -83.285156 9.15625 -80.953125 C 7.707031 -78.617188 6.734375 -76.695312 6.234375 -75.1875 C 5.734375 -73.675781 6.113281 -73.046875 7.375 -73.296875 C 8.757812 -73.679688 9.609375 -73.429688 9.921875 -72.546875 C 10.234375 -71.660156 10.101562 -70.710938 9.53125 -69.703125 C 8.96875 -68.703125 7.992188 -68.015625 6.609375 -67.640625 C 5.734375 -67.515625 4.695312 -67.671875 3.5 -68.109375 C 2.300781 -68.546875 1.578125 -69.332031 1.328125 -70.46875 C 0.941406 -72.351562 1.535156 -74.898438 3.109375 -78.109375 C 4.691406 -81.328125 6.644531 -84.539062 8.96875 -87.75 C 11.300781 -90.96875 13.285156 -93.582031 14.921875 -95.59375 C 21.222656 -103.53125 28.304688 -111.59375 36.171875 -119.78125 C 44.046875 -127.96875 52.265625 -135.835938 60.828125 -143.390625 C 69.398438 -150.953125 77.84375 -157.628906 86.15625 -163.421875 C 99.882812 -173.117188 111.972656 -179.789062 122.421875 -183.4375 C 132.878906 -187.09375 140.941406 -187.753906 146.609375 -185.421875 C 152.273438 -183.097656 154.882812 -177.84375 154.4375 -169.65625 C 154 -161.46875 149.75 -150.320312 141.6875 -136.21875 C 135.519531 -125.507812 127.773438 -114.894531 118.453125 -104.375 C 109.128906 -93.863281 98.738281 -84.132812 87.28125 -75.1875 C 75.820312 -66.25 63.734375 -58.628906 51.015625 -52.328125 C 50.753906 -51.578125 50.5 -50.820312 50.25 -50.0625 C 50 -49.3125 49.75 -48.554688 49.5 -47.796875 C 52.269531 -47.421875 56.363281 -46.851562 61.78125 -46.09375 C 67.195312 -45.34375 73.144531 -44.460938 79.625 -43.453125 C 86.113281 -42.441406 92.503906 -41.273438 98.796875 -39.953125 C 105.097656 -38.628906 110.578125 -37.179688 115.234375 -35.609375 C 119.898438 -34.035156 122.988281 -32.367188 124.5 -30.609375 Z M 43.265625 -48.75 C 43.515625 -48.75 43.765625 -48.710938 44.015625 -48.640625 C 44.265625 -48.578125 44.519531 -48.546875 44.78125 -48.546875 C 44.90625 -48.804688 44.96875 -49 44.96875 -49.125 C 44.96875 -49.25 45.03125 -49.375 45.15625 -49.5 C 44.90625 -49.375 44.585938 -49.25 44.203125 -49.125 C 43.828125 -49 43.515625 -48.875 43.265625 -48.75 Z M 43.265625 -48.75 "/></g></g></g><g transform="matrix(1, 0, 0, 1, 14, 433)"><g clip-path="url(#52edf784de)"><g fill="#3d3b3a" fill-opacity="1"><g transform="translate(0.298482, 42.717948)"><g><path d="M 26.46875 0 L 19.609375 -9.828125 C 19.316406 -9.796875 18.882812 -9.78125 18.3125 -9.78125 L 10.734375 -9.78125 L 10.734375 0 L 4.5 0 L 4.5 -33.5625 L 18.3125 -33.5625 C 21.21875 -33.5625 23.75 -33.082031 25.90625 -32.125 C 28.0625 -31.164062 29.710938 -29.789062 30.859375 -28 C 32.015625 -26.207031 32.59375 -24.082031 32.59375 -21.625 C 32.59375 -19.09375 31.976562 -16.914062 30.75 -15.09375 C 29.519531 -13.28125 27.753906 -11.925781 25.453125 -11.03125 L 33.171875 0 Z M 26.3125 -21.625 C 26.3125 -23.757812 25.609375 -25.398438 24.203125 -26.546875 C 22.796875 -27.703125 20.738281 -28.28125 18.03125 -28.28125 L 10.734375 -28.28125 L 10.734375 -14.90625 L 18.03125 -14.90625 C 20.738281 -14.90625 22.796875 -15.488281 24.203125 -16.65625 C 25.609375 -17.820312 26.3125 -19.476562 26.3125 -21.625 Z M 26.3125 -21.625 "/></g></g></g><g fill="#3d3b3a" fill-opacity="1"><g transform="translate(44.93268, 42.717948)"><g><path d="M 29.671875 -5.21875 L 29.671875 0 L 4.5 0 L 4.5 -33.5625 L 29 -33.5625 L 29 -28.328125 L 10.734375 -28.328125 L 10.734375 -19.609375 L 26.9375 -19.609375 L 26.9375 -14.484375 L 10.734375 -14.484375 L 10.734375 -5.21875 Z M 29.671875 -5.21875 "/></g></g></g><g fill="#3d3b3a" fill-opacity="1"><g transform="translate(86.642374, 42.717948)"><g><path d="M 35.1875 -33.5625 L 20.5625 0 L 14.421875 0 L -0.234375 -33.5625 L 6.515625 -33.5625 L 17.6875 -7.671875 L 28.953125 -33.5625 Z M 35.1875 -33.5625 "/></g></g></g><g fill="#3d3b3a" fill-opacity="1"><g transform="translate(131.180648, 42.717948)"><g><path d="M 26.265625 -7.765625 L 9.484375 -7.765625 L 6.1875 0 L -0.234375 0 L 14.859375 -33.5625 L 21 -33.5625 L 36.140625 0 L 29.625 0 Z M 24.203125 -12.65625 L 17.875 -27.328125 L 11.59375 -12.65625 Z M 24.203125 -12.65625 "/></g></g></g><g fill="#3d3b3a" fill-opacity="1"><g transform="translate(176.677785, 42.717948)"><g/></g></g><g fill="#3d3b3a" fill-opacity="1"><g transform="translate(199.498318, 42.717948)"><g><path d="M 4.5 -33.5625 L 10.734375 -33.5625 L 10.734375 0 L 4.5 0 Z M 4.5 -33.5625 "/></g></g></g><g fill="#3d3b3a" fill-opacity="1"><g transform="translate(224.380324, 42.717948)"><g><path d="M 34.328125 -33.5625 L 34.328125 0 L 29.1875 0 L 10.6875 -22.71875 L 10.6875 0 L 4.5 0 L 4.5 -33.5625 L 9.640625 -33.5625 L 28.140625 -10.828125 L 28.140625 -33.5625 Z M 34.328125 -33.5625 "/></g></g></g><g fill="#3d3b3a" fill-opacity="1"><g transform="translate(272.801918, 42.717948)"><g><path d="M 10.734375 -28.328125 L 10.734375 -18.125 L 26.9375 -18.125 L 26.9375 -12.84375 L 10.734375 -12.84375 L 10.734375 0 L 4.5 0 L 4.5 -33.5625 L 29 -33.5625 L 29 -28.328125 Z M 10.734375 -28.328125 "/></g></g></g><g fill="#3d3b3a" fill-opacity="1"><g transform="translate(312.929526, 42.717948)"><g><path d="M 20.1875 0.484375 C 16.757812 0.484375 13.671875 -0.257812 10.921875 -1.75 C 8.179688 -3.238281 6.023438 -5.300781 4.453125 -7.9375 C 2.890625 -10.570312 2.109375 -13.519531 2.109375 -16.78125 C 2.109375 -20.039062 2.890625 -22.988281 4.453125 -25.625 C 6.023438 -28.257812 8.179688 -30.316406 10.921875 -31.796875 C 13.671875 -33.285156 16.757812 -34.03125 20.1875 -34.03125 C 23.601562 -34.03125 26.6875 -33.285156 29.4375 -31.796875 C 32.1875 -30.316406 34.34375 -28.265625 35.90625 -25.640625 C 37.46875 -23.023438 38.25 -20.070312 38.25 -16.78125 C 38.25 -13.488281 37.46875 -10.53125 35.90625 -7.90625 C 34.34375 -5.289062 32.1875 -3.238281 29.4375 -1.75 C 26.6875 -0.257812 23.601562 0.484375 20.1875 0.484375 Z M 20.1875 -4.984375 C 22.414062 -4.984375 24.425781 -5.484375 26.21875 -6.484375 C 28.007812 -7.492188 29.414062 -8.898438 30.4375 -10.703125 C 31.457031 -12.515625 31.96875 -14.539062 31.96875 -16.78125 C 31.96875 -19.019531 31.457031 -21.039062 30.4375 -22.84375 C 29.414062 -24.644531 28.007812 -26.050781 26.21875 -27.0625 C 24.425781 -28.070312 22.414062 -28.578125 20.1875 -28.578125 C 17.945312 -28.578125 15.929688 -28.070312 14.140625 -27.0625 C 12.347656 -26.050781 10.941406 -24.644531 9.921875 -22.84375 C 8.898438 -21.039062 8.390625 -19.019531 8.390625 -16.78125 C 8.390625 -14.539062 8.898438 -12.515625 9.921875 -10.703125 C 10.941406 -8.898438 12.347656 -7.492188 14.140625 -6.484375 C 15.929688 -5.484375 17.945312 -4.984375 20.1875 -4.984375 Z M 20.1875 -4.984375 "/></g></g></g><g fill="#3d3b3a" fill-opacity="1"><g transform="translate(362.885291, 42.717948)"><g><path d="M 11.3125 -28.28125 L 0.1875 -28.28125 L 0.1875 -33.5625 L 28.671875 -33.5625 L 28.671875 -28.28125 L 17.546875 -28.28125 L 17.546875 0 L 11.3125 0 Z M 11.3125 -28.28125 "/></g></g></g><g fill="#3d3b3a" fill-opacity="1"><g transform="translate(401.334935, 42.717948)"><g><path d="M 29.671875 -5.21875 L 29.671875 0 L 4.5 0 L 4.5 -33.5625 L 29 -33.5625 L 29 -28.328125 L 10.734375 -28.328125 L 10.734375 -19.609375 L 26.9375 -19.609375 L 26.9375 -14.484375 L 10.734375 -14.484375 L 10.734375 -5.21875 Z M 29.671875 -5.21875 "/></g></g></g><g fill="#3d3b3a" fill-opacity="1"><g transform="translate(443.044629, 42.717948)"><g><path d="M 20.03125 0.484375 C 16.644531 0.484375 13.585938 -0.257812 10.859375 -1.75 C 8.128906 -3.238281 5.988281 -5.289062 4.4375 -7.90625 C 2.882812 -10.53125 2.109375 -13.488281 2.109375 -16.78125 C 2.109375 -20.070312 2.890625 -23.023438 4.453125 -25.640625 C 6.023438 -28.265625 8.175781 -30.316406 10.90625 -31.796875 C 13.632812 -33.285156 16.691406 -34.03125 20.078125 -34.03125 C 22.828125 -34.03125 25.335938 -33.550781 27.609375 -32.59375 C 29.878906 -31.632812 31.796875 -30.242188 33.359375 -28.421875 L 29.34375 -24.640625 C 26.90625 -27.265625 23.914062 -28.578125 20.375 -28.578125 C 18.070312 -28.578125 16.007812 -28.070312 14.1875 -27.0625 C 12.363281 -26.050781 10.941406 -24.648438 9.921875 -22.859375 C 8.898438 -21.078125 8.390625 -19.050781 8.390625 -16.78125 C 8.390625 -14.507812 8.898438 -12.476562 9.921875 -10.6875 C 10.941406 -8.894531 12.363281 -7.492188 14.1875 -6.484375 C 16.007812 -5.484375 18.070312 -4.984375 20.375 -4.984375 C 23.914062 -4.984375 26.90625 -6.3125 29.34375 -8.96875 L 33.359375 -5.125 C 31.796875 -3.300781 29.867188 -1.910156 27.578125 -0.953125 C 25.296875 0.00390625 22.78125 0.484375 20.03125 0.484375 Z M 20.03125 0.484375 "/></g></g></g><g fill="#3d3b3a" fill-opacity="1"><g transform="translate(487.487026, 42.717948)"><g><path d="M 34.328125 -33.5625 L 34.328125 0 L 28.09375 0 L 28.09375 -14.375 L 10.734375 -14.375 L 10.734375 0 L 4.5 0 L 4.5 -33.5625 L 10.734375 -33.5625 L 10.734375 -19.703125 L 28.09375 -19.703125 L 28.09375 -33.5625 Z M 34.328125 -33.5625 "/></g></g></g><g fill="#3d3b3a" fill-opacity="1"><g transform="translate(535.90862, 42.717948)"><g/></g></g><g fill="#3d3b3a" fill-opacity="1"><g transform="translate(558.729154, 42.717948)"><g><path d="M 18.3125 -33.5625 C 21.21875 -33.5625 23.75 -33.082031 25.90625 -32.125 C 28.0625 -31.164062 29.710938 -29.789062 30.859375 -28 C 32.015625 -26.207031 32.59375 -24.082031 32.59375 -21.625 C 32.59375 -19.1875 32.015625 -17.066406 30.859375 -15.265625 C 29.710938 -13.460938 28.0625 -12.082031 25.90625 -11.125 C 23.75 -10.164062 21.21875 -9.6875 18.3125 -9.6875 L 10.734375 -9.6875 L 10.734375 0 L 4.5 0 L 4.5 -33.5625 Z M 18.03125 -14.953125 C 20.738281 -14.953125 22.796875 -15.523438 24.203125 -16.671875 C 25.609375 -17.828125 26.3125 -19.476562 26.3125 -21.625 C 26.3125 -23.757812 25.609375 -25.398438 24.203125 -26.546875 C 22.796875 -27.703125 20.738281 -28.28125 18.03125 -28.28125 L 10.734375 -28.28125 L 10.734375 -14.953125 Z M 18.03125 -14.953125 "/></g></g></g><g fill="#3d3b3a" fill-opacity="1"><g transform="translate(603.123635, 42.717948)"><g><path d="M 35.1875 -33.5625 L 20.5625 0 L 14.421875 0 L -0.234375 -33.5625 L 6.515625 -33.5625 L 17.6875 -7.671875 L 28.953125 -33.5625 Z M 35.1875 -33.5625 "/></g></g></g><g fill="#3d3b3a" fill-opacity="1"><g transform="translate(647.66191, 42.717948)"><g><path d="M 11.3125 -28.28125 L 0.1875 -28.28125 L 0.1875 -33.5625 L 28.671875 -33.5625 L 28.671875 -28.28125 L 17.546875 -28.28125 L 17.546875 0 L 11.3125 0 Z M 11.3125 -28.28125 "/></g></g></g><g fill="#3d3b3a" fill-opacity="1"><g transform="translate(686.111554, 42.717948)"><g/></g></g><g fill="#3d3b3a" fill-opacity="1"><g transform="translate(708.932087, 42.717948)"><g><path d="M 4.5 -33.5625 L 10.734375 -33.5625 L 10.734375 -5.265625 L 28.28125 -5.265625 L 28.28125 0 L 4.5 0 Z M 4.5 -33.5625 "/></g></g></g><g fill="#3d3b3a" fill-opacity="1"><g transform="translate(747.237893, 42.717948)"><g><path d="M 11.3125 -28.28125 L 0.1875 -28.28125 L 0.1875 -33.5625 L 28.671875 -33.5625 L 28.671875 -28.28125 L 17.546875 -28.28125 L 17.546875 0 L 11.3125 0 Z M 11.3125 -28.28125 "/></g></g></g><g fill="#3d3b3a" fill-opacity="1"><g transform="translate(785.687492, 42.717948)"><g><path d="M 4.5 -33.5625 L 19.171875 -33.5625 C 22.753906 -33.5625 25.9375 -32.863281 28.71875 -31.46875 C 31.5 -30.082031 33.65625 -28.117188 35.1875 -25.578125 C 36.71875 -23.035156 37.484375 -20.101562 37.484375 -16.78125 C 37.484375 -13.457031 36.71875 -10.523438 35.1875 -7.984375 C 33.65625 -5.441406 31.5 -3.472656 28.71875 -2.078125 C 25.9375 -0.691406 22.753906 0 19.171875 0 L 4.5 0 Z M 18.890625 -5.265625 C 21.347656 -5.265625 23.507812 -5.734375 25.375 -6.671875 C 27.25 -7.617188 28.6875 -8.960938 29.6875 -10.703125 C 30.695312 -12.453125 31.203125 -14.476562 31.203125 -16.78125 C 31.203125 -19.082031 30.695312 -21.101562 29.6875 -22.84375 C 28.6875 -24.582031 27.25 -25.921875 25.375 -26.859375 C 23.507812 -27.804688 21.347656 -28.28125 18.890625 -28.28125 L 10.734375 -28.28125 L 10.734375 -5.265625 Z M 18.890625 -5.265625 "/></g></g></g></g></g></svg>