<svg xmlns="http://www.w3.org/2000/svg" xmlns:xlink="http://www.w3.org/1999/xlink" width="431" zoomAndPan="magnify" viewBox="0 0 323.25 620.250004" height="827" preserveAspectRatio="xMidYMid meet" version="1.0"><defs><g/></defs><g fill="#3d3b3a" fill-opacity="1"><g transform="translate(69.570803, 388.433442)"><g><path d="M 124.359375 -30.578125 C 125.742188 -28.941406 126.054688 -27.273438 125.296875 -25.578125 C 124.546875 -23.878906 123.289062 -23.03125 121.53125 -23.03125 C 120.019531 -23.03125 119.296875 -23.46875 119.359375 -24.34375 C 119.421875 -25.226562 119.453125 -25.734375 119.453125 -25.859375 C 119.585938 -27.492188 117.828125 -29.035156 114.171875 -30.484375 C 110.523438 -31.929688 105.742188 -33.25 99.828125 -34.4375 C 93.921875 -35.632812 87.597656 -36.703125 80.859375 -37.640625 C 74.128906 -38.585938 67.804688 -39.40625 61.890625 -40.09375 C 55.984375 -40.789062 51.207031 -41.390625 47.5625 -41.890625 C 47.050781 -40.378906 46.289062 -37.863281 45.28125 -34.34375 C 44.28125 -30.820312 43.242188 -26.984375 42.171875 -22.828125 C 41.109375 -18.679688 40.289062 -14.910156 39.71875 -11.515625 C 39.15625 -8.117188 39.125 -5.789062 39.625 -4.53125 C 40.007812 -3.519531 39.789062 -2.570312 38.96875 -1.6875 C 38.15625 -0.8125 37.179688 -0.25 36.046875 0 C 34.910156 0.25 34.15625 -0.125 33.78125 -1.125 C 33.28125 -3.019531 33.3125 -5.789062 33.875 -9.4375 C 34.4375 -13.082031 35.285156 -17.039062 36.421875 -21.3125 C 37.554688 -25.59375 38.71875 -29.648438 39.90625 -33.484375 C 41.101562 -37.328125 42.082031 -40.382812 42.84375 -42.65625 C 41.957031 -42.90625 41.070312 -43.09375 40.1875 -43.21875 C 39.3125 -43.34375 38.367188 -43.46875 37.359375 -43.59375 C 34.347656 -44.21875 32.96875 -45.441406 33.21875 -47.265625 C 33.46875 -49.097656 34.847656 -50.515625 37.359375 -51.515625 C 38.742188 -52.148438 40.285156 -52.8125 41.984375 -53.5 C 43.679688 -54.195312 45.476562 -54.984375 47.375 -55.859375 C 48.375 -58.628906 49.785156 -62.53125 51.609375 -67.5625 C 53.441406 -72.59375 55.613281 -78.285156 58.125 -84.640625 C 60.644531 -90.992188 63.316406 -97.535156 66.140625 -104.265625 C 68.972656 -110.992188 71.835938 -117.441406 74.734375 -123.609375 C 77.628906 -129.773438 80.457031 -135.1875 83.21875 -139.84375 C 85.988281 -144.5 88.507812 -147.894531 90.78125 -150.03125 C 92.414062 -151.664062 94.082031 -152.453125 95.78125 -152.390625 C 97.476562 -152.328125 98.007812 -151.414062 97.375 -149.65625 C 96.875 -148.144531 96.148438 -147.296875 95.203125 -147.109375 C 94.265625 -146.921875 93.671875 -146.765625 93.421875 -146.640625 C 91.785156 -145.628906 89.769531 -143.046875 87.375 -138.890625 C 84.988281 -134.742188 82.378906 -129.679688 79.546875 -123.703125 C 76.710938 -117.734375 73.878906 -111.378906 71.046875 -104.640625 C 68.222656 -97.910156 65.582031 -91.429688 63.125 -85.203125 C 60.675781 -78.972656 58.566406 -73.5 56.796875 -68.78125 C 55.035156 -64.070312 53.84375 -60.769531 53.21875 -58.875 C 64.539062 -64.789062 75.390625 -71.835938 85.765625 -80.015625 C 96.148438 -88.191406 105.710938 -97.125 114.453125 -106.8125 C 123.203125 -116.5 130.660156 -126.628906 136.828125 -137.203125 C 143.367188 -148.273438 147.203125 -157.457031 148.328125 -164.75 C 149.460938 -172.050781 147.953125 -176.988281 143.796875 -179.5625 C 139.648438 -182.144531 132.953125 -181.863281 123.703125 -178.71875 C 114.453125 -175.570312 102.722656 -169.09375 88.515625 -159.28125 C 78.953125 -152.738281 69.765625 -145.566406 60.953125 -137.765625 C 52.148438 -129.960938 44.097656 -122.253906 36.796875 -114.640625 C 29.503906 -107.035156 23.34375 -100.085938 18.3125 -93.796875 C 17.050781 -92.285156 15.570312 -90.332031 13.875 -87.9375 C 12.175781 -85.550781 10.601562 -83.191406 9.15625 -80.859375 C 7.707031 -78.535156 6.726562 -76.617188 6.21875 -75.109375 C 5.71875 -73.597656 6.097656 -72.96875 7.359375 -73.21875 C 8.742188 -73.601562 9.59375 -73.351562 9.90625 -72.46875 C 10.21875 -71.582031 10.09375 -70.632812 9.53125 -69.625 C 8.96875 -68.625 7.992188 -67.9375 6.609375 -67.5625 C 5.722656 -67.4375 4.679688 -67.59375 3.484375 -68.03125 C 2.296875 -68.46875 1.578125 -69.253906 1.328125 -70.390625 C 0.941406 -72.273438 1.535156 -74.820312 3.109375 -78.03125 C 4.679688 -81.238281 6.628906 -84.445312 8.953125 -87.65625 C 11.285156 -90.863281 13.269531 -93.476562 14.90625 -95.5 C 21.195312 -103.414062 28.273438 -111.460938 36.140625 -119.640625 C 44.003906 -127.828125 52.210938 -135.691406 60.765625 -143.234375 C 69.316406 -150.785156 77.75 -157.457031 86.0625 -163.25 C 99.769531 -172.9375 111.84375 -179.601562 122.28125 -183.25 C 132.726562 -186.894531 140.78125 -187.550781 146.4375 -185.21875 C 152.101562 -182.894531 154.71875 -177.644531 154.28125 -169.46875 C 153.84375 -161.289062 149.597656 -150.15625 141.546875 -136.0625 C 135.378906 -125.375 127.640625 -114.773438 118.328125 -104.265625 C 109.015625 -93.765625 98.632812 -84.046875 87.1875 -75.109375 C 75.738281 -66.179688 63.660156 -58.570312 50.953125 -52.28125 C 50.703125 -51.519531 50.453125 -50.757812 50.203125 -50 C 49.953125 -49.25 49.695312 -48.5 49.4375 -47.75 C 52.207031 -47.375 56.296875 -46.804688 61.703125 -46.046875 C 67.117188 -45.296875 73.066406 -44.414062 79.546875 -43.40625 C 86.023438 -42.394531 92.410156 -41.226562 98.703125 -39.90625 C 104.992188 -38.59375 110.46875 -37.148438 115.125 -35.578125 C 119.78125 -34.003906 122.859375 -32.335938 124.359375 -30.578125 Z M 43.21875 -48.6875 C 43.46875 -48.6875 43.71875 -48.65625 43.96875 -48.59375 C 44.21875 -48.53125 44.472656 -48.5 44.734375 -48.5 C 44.859375 -48.75 44.921875 -48.9375 44.921875 -49.0625 C 44.921875 -49.1875 44.984375 -49.3125 45.109375 -49.4375 C 44.859375 -49.3125 44.539062 -49.1875 44.15625 -49.0625 C 43.78125 -48.9375 43.46875 -48.8125 43.21875 -48.6875 Z M 43.21875 -48.6875 "/></g></g></g><g fill="#3d3b3a" fill-opacity="1"><g transform="translate(234.576539, 374.216426)"><g><path d="M 23.078125 0.734375 C 20.179688 0.734375 17.628906 0.148438 15.421875 -1.015625 C 13.210938 -2.191406 11.519531 -3.816406 10.34375 -5.890625 C 9.175781 -7.960938 8.59375 -10.3125 8.59375 -12.9375 C 8.59375 -15.550781 9.175781 -17.894531 10.34375 -19.96875 C 11.519531 -22.039062 13.210938 -23.675781 15.421875 -24.875 C 17.628906 -26.082031 20.179688 -26.6875 23.078125 -26.6875 C 26.023438 -26.6875 28.601562 -26.097656 30.8125 -24.921875 C 33.019531 -23.742188 34.707031 -22.117188 35.875 -20.046875 C 37.050781 -17.972656 37.640625 -15.628906 37.640625 -13.015625 C 37.640625 -9.023438 36.316406 -5.734375 33.671875 -3.140625 C 31.023438 -0.554688 27.492188 0.734375 23.078125 0.734375 Z M 23.078125 0.734375 "/></g></g></g></svg>