<svg xmlns="http://www.w3.org/2000/svg" xmlns:xlink="http://www.w3.org/1999/xlink" width="652" zoomAndPan="magnify" viewBox="0 0 488.87997 342.749987" height="457" preserveAspectRatio="xMidYMid meet" version="1.0"><defs><g/><clipPath id="897d608777"><path d="M 96.8125 198 L 391.984375 198 L 391.984375 203 L 96.8125 203 Z M 96.8125 198 " clip-rule="nonzero"/></clipPath><clipPath id="591904ef47"><path d="M 136 206 L 353 206 L 353 210.597656 L 136 210.597656 Z M 136 206 " clip-rule="nonzero"/></clipPath></defs><path fill="#000000" d="M 324.882812 103.90625 L 346.78125 121.054688 L 347.3125 196.386719 L 344.539062 122.273438 Z M 263.75 105.917969 L 317.839844 96.417969 L 315.992188 173.726562 L 314.410156 100.839844 Z M 257.8125 125.113281 L 258.867188 172.738281 L 254.382812 129.070312 L 142.246094 139.757812 Z M 138.667969 137.386719 L 152.195312 135.417969 L 154.5625 81.902344 L 160.921875 81.902344 L 163.113281 131.476562 L 157.941406 134.542969 L 194.808594 129.21875 L 197.585938 66.492188 L 205.441406 66.488281 L 208.035156 125.007812 L 203.054688 128.019531 L 237.921875 122.949219 L 240.964844 54.160156 L 249.441406 54.160156 L 252.296875 118.609375 L 247.578125 121.570312 L 260.425781 119.675781 L 260.425781 103.480469 L 286.097656 98.546875 L 288.9375 34.511719 L 297.414062 34.511719 L 299.972656 92.359375 L 293.402344 97.171875 L 318.605469 92.304688 L 350.148438 119.308594 L 350.148438 199.417969 L 138.667969 199.417969 Z M 138.667969 137.386719 " fill-opacity="1" fill-rule="evenodd"/><g clip-path="url(#897d608777)"><path fill="#000000" d="M 121.453125 198.679688 L 367.359375 198.679688 C 380.976562 198.679688 392.113281 199.601562 392.113281 200.734375 C 392.113281 201.863281 380.976562 202.785156 367.359375 202.785156 L 121.453125 202.785156 C 107.839844 202.785156 96.699219 201.863281 96.699219 200.734375 C 96.699219 199.605469 107.839844 198.679688 121.453125 198.679688 " fill-opacity="1" fill-rule="evenodd"/></g><g clip-path="url(#591904ef47)"><path fill="#000000" d="M 161.558594 206.726562 L 327.253906 206.726562 C 340.871094 206.726562 352.007812 207.652344 352.007812 208.78125 C 352.007812 209.910156 340.871094 210.832031 327.253906 210.832031 L 161.558594 210.832031 C 147.945312 210.832031 136.808594 209.910156 136.808594 208.78125 C 136.808594 207.652344 147.945312 206.726562 161.558594 206.726562 " fill-opacity="1" fill-rule="evenodd"/></g><path fill="#000000" d="M 290.820312 32.652344 C 290.820312 32.652344 296.792969 29.394531 294.234375 24.890625 C 294.234375 24.890625 300.054688 20.3125 296.5625 15.347656 C 296.5625 15.347656 296.5625 8.671875 289.421875 8.828125 C 282.28125 8.984375 281.660156 13.714844 281.660156 13.714844 C 281.660156 13.714844 281.894531 9.914062 284.765625 8.128906 C 284.765625 8.128906 274.136719 2.078125 269.246094 9.757812 C 269.246094 9.757812 271.574219 5.800781 272.503906 5.257812 C 272.503906 5.257812 259.15625 3.628906 258.769531 12.476562 C 258.378906 21.324219 244.878906 0.136719 242.160156 8.984375 C 239.445312 17.832031 237.816406 18.527344 231.605469 19.070312 C 225.398438 19.613281 215.621094 14.800781 217.015625 22.5625 C 218.414062 30.324219 207.160156 24.347656 207.160156 24.347656 C 207.160156 24.347656 209.800781 29.46875 215.621094 29.703125 C 221.441406 29.9375 225.320312 22.332031 232.613281 23.417969 C 239.910156 24.503906 232.925781 30.480469 244.257812 29.316406 C 255.585938 28.152344 257.527344 21.476562 257.527344 21.476562 C 257.527344 21.476562 258.304688 26.445312 253.183594 28.230469 C 253.183594 28.230469 258.769531 33.351562 264.125 28.773438 C 269.476562 24.191406 271.105469 21.398438 271.105469 21.398438 C 271.105469 21.398438 267.304688 27.917969 266.839844 28.304688 C 266.375 28.695312 268.78125 33.429688 273.433594 31.566406 C 278.089844 29.703125 279.253906 27.6875 279.253906 27.6875 C 279.253906 27.6875 277.316406 31.023438 275.066406 32.109375 C 275.066406 32.109375 280.265625 33.117188 283.449219 30.480469 C 286.628906 27.839844 291.90625 28.074219 290.820312 32.652344 " fill-opacity="1" fill-rule="evenodd"/><path fill="#000000" d="M 199.625 65.074219 C 199.625 65.074219 203.550781 62.929688 201.867188 59.972656 C 201.867188 59.972656 205.691406 56.96875 203.398438 53.703125 C 203.398438 53.703125 203.398438 49.320312 198.707031 49.421875 C 194.019531 49.523438 193.613281 52.632812 193.613281 52.632812 C 193.613281 52.632812 193.765625 50.136719 195.652344 48.964844 C 195.652344 48.964844 188.667969 44.988281 185.457031 50.035156 C 185.457031 50.035156 186.984375 47.433594 187.597656 47.078125 C 187.597656 47.078125 178.828125 46.007812 178.574219 51.820312 C 178.320312 57.628906 169.449219 43.714844 167.664062 49.523438 C 165.878906 55.335938 164.8125 55.792969 160.730469 56.152344 C 156.652344 56.507812 150.230469 53.347656 151.148438 58.445312 C 152.066406 63.542969 144.675781 59.617188 144.675781 59.617188 C 144.675781 59.617188 146.40625 62.980469 150.230469 63.136719 C 154.054688 63.289062 156.601562 58.292969 161.394531 59.007812 C 166.183594 59.71875 161.597656 63.644531 169.039062 62.882812 C 176.484375 62.117188 177.757812 57.730469 177.757812 57.730469 C 177.757812 57.730469 178.265625 60.996094 174.902344 62.167969 C 174.902344 62.167969 178.570312 65.53125 182.089844 62.523438 C 185.605469 59.515625 186.679688 57.679688 186.679688 57.679688 C 186.679688 57.679688 184.179688 61.964844 183.875 62.21875 C 183.566406 62.472656 185.148438 65.582031 188.207031 64.359375 C 191.265625 63.136719 192.03125 61.8125 192.03125 61.8125 C 192.03125 61.8125 190.757812 64.003906 189.277344 64.71875 C 189.277344 64.71875 192.695312 65.378906 194.78125 63.644531 C 196.871094 61.910156 200.339844 62.066406 199.625 65.074219 " fill-opacity="1" fill-rule="evenodd"/><g fill="#000000" fill-opacity="1"><g transform="translate(71.807837, 277.618578)"><g><path d="M 3.078125 -32.421875 L 20.484375 -32.421875 L 20.484375 -29.71875 L 6.0625 -29.71875 L 6.0625 -17.875 L 18.40625 -17.875 L 18.40625 -15.21875 L 6.0625 -15.21875 L 6.0625 0 L 3.078125 0 Z M 3.078125 -32.421875 "/></g></g></g><g fill="#000000" fill-opacity="1"><g transform="translate(112.499299, 277.618578)"><g><path d="M 11.3125 0.453125 C 9.144531 0.453125 7.378906 -0.0351562 6.015625 -1.015625 C 4.660156 -2.003906 3.65625 -3.328125 3 -4.984375 C 2.351562 -6.648438 2.03125 -8.492188 2.03125 -10.515625 L 2.03125 -11.515625 C 2.03125 -13.566406 2.351562 -15.414062 3 -17.0625 C 3.65625 -18.707031 4.660156 -20.019531 6.015625 -21 C 7.378906 -21.988281 9.144531 -22.484375 11.3125 -22.484375 C 13.46875 -22.484375 15.226562 -21.988281 16.59375 -21 C 17.96875 -20.019531 18.972656 -18.707031 19.609375 -17.0625 C 20.253906 -15.414062 20.578125 -13.566406 20.578125 -11.515625 L 20.578125 -10.515625 C 20.578125 -8.492188 20.253906 -6.648438 19.609375 -4.984375 C 18.972656 -3.328125 17.96875 -2.003906 16.59375 -1.015625 C 15.226562 -0.0351562 13.46875 0.453125 11.3125 0.453125 Z M 11.3125 -2.15625 C 13.5 -2.15625 15.097656 -2.914062 16.109375 -4.4375 C 17.117188 -5.96875 17.625 -7.992188 17.625 -10.515625 L 17.625 -11.515625 C 17.625 -14.035156 17.117188 -16.054688 16.109375 -17.578125 C 15.097656 -19.097656 13.5 -19.859375 11.3125 -19.859375 C 9.113281 -19.859375 7.507812 -19.097656 6.5 -17.578125 C 5.488281 -16.054688 4.984375 -14.035156 4.984375 -11.515625 L 4.984375 -10.515625 C 4.984375 -7.992188 5.488281 -5.96875 6.5 -4.4375 C 7.507812 -2.914062 9.113281 -2.15625 11.3125 -2.15625 Z M 11.3125 -2.15625 "/></g></g></g><g fill="#000000" fill-opacity="1"><g transform="translate(155.476665, 277.618578)"><g><path d="M 11.46875 -22.484375 C 11.601562 -22.484375 11.734375 -22.472656 11.859375 -22.453125 C 11.984375 -22.441406 12.0625 -22.4375 12.09375 -22.4375 L 12.09375 -19.65625 L 11.515625 -19.65625 C 10.398438 -19.65625 9.460938 -19.484375 8.703125 -19.140625 C 7.941406 -18.796875 7.316406 -18.363281 6.828125 -17.84375 C 6.347656 -17.332031 5.957031 -16.828125 5.65625 -16.328125 L 5.65625 0 L 2.75 0 L 2.75 -15.796875 L 2.5 -22.03125 L 4.90625 -22.03125 L 5.3125 -19.125 C 5.894531 -20.03125 6.695312 -20.816406 7.71875 -21.484375 C 8.75 -22.148438 10 -22.484375 11.46875 -22.484375 Z M 11.46875 -22.484375 "/></g></g></g><g fill="#000000" fill-opacity="1"><g transform="translate(188.68742, 277.618578)"><g><path d="M 16.703125 0.046875 L 16.703125 -4.03125 C 16.097656 -3.195312 15.296875 -2.503906 14.296875 -1.953125 C 13.296875 -1.398438 12.019531 -1.125 10.46875 -1.125 C 8.476562 -1.125 6.859375 -1.585938 5.609375 -2.515625 C 4.359375 -3.441406 3.445312 -4.679688 2.875 -6.234375 C 2.3125 -7.785156 2.03125 -9.488281 2.03125 -11.34375 L 2.03125 -12.265625 C 2.03125 -14.117188 2.3125 -15.8125 2.875 -17.34375 C 3.445312 -18.882812 4.359375 -20.125 5.609375 -21.0625 C 6.859375 -22.007812 8.476562 -22.484375 10.46875 -22.484375 C 12.164062 -22.484375 13.539062 -22.148438 14.59375 -21.484375 C 15.644531 -20.816406 16.460938 -20.015625 17.046875 -19.078125 L 17.453125 -22.03125 L 19.859375 -22.03125 L 19.625 -15.796875 L 19.625 0.203125 C 19.625 1.835938 19.335938 3.304688 18.765625 4.609375 C 18.191406 5.910156 17.273438 6.925781 16.015625 7.65625 C 14.753906 8.394531 13.070312 8.765625 10.96875 8.765625 C 8.863281 8.765625 7.1875 8.390625 5.9375 7.640625 C 4.695312 6.898438 3.804688 5.90625 3.265625 4.65625 C 2.722656 3.40625 2.453125 2.035156 2.453125 0.546875 L 2.453125 0 L 5.234375 0 C 5.234375 2.082031 5.671875 3.640625 6.546875 4.671875 C 7.421875 5.710938 8.882812 6.234375 10.9375 6.234375 C 13.0625 6.234375 14.550781 5.707031 15.40625 4.65625 C 16.269531 3.601562 16.703125 2.066406 16.703125 0.046875 Z M 16.703125 -16.453125 C 16.398438 -16.953125 16.003906 -17.460938 15.515625 -17.984375 C 15.035156 -18.515625 14.4375 -18.957031 13.71875 -19.3125 C 13 -19.675781 12.125 -19.859375 11.09375 -19.859375 C 9.039062 -19.859375 7.507812 -19.160156 6.5 -17.765625 C 5.488281 -16.367188 4.984375 -14.535156 4.984375 -12.265625 L 4.984375 -11.34375 C 4.984375 -9.039062 5.488281 -7.195312 6.5 -5.8125 C 7.507812 -4.425781 9.039062 -3.734375 11.09375 -3.734375 C 12.125 -3.734375 13 -3.914062 13.71875 -4.28125 C 14.4375 -4.644531 15.035156 -5.085938 15.515625 -5.609375 C 16.003906 -6.140625 16.398438 -6.640625 16.703125 -7.109375 Z M 16.703125 -16.453125 "/></g></g></g><g fill="#000000" fill-opacity="1"><g transform="translate(231.37386, 277.618578)"><g><path d="M 20.578125 -9.8125 L 4.984375 -9.8125 C 5.046875 -7.394531 5.609375 -5.488281 6.671875 -4.09375 C 7.734375 -2.695312 9.359375 -2 11.546875 -2 C 13.015625 -2 14.207031 -2.253906 15.125 -2.765625 C 16.039062 -3.273438 16.710938 -3.925781 17.140625 -4.71875 C 17.566406 -5.507812 17.78125 -6.289062 17.78125 -7.0625 L 20.578125 -7.0625 L 20.578125 -6.90625 C 20.578125 -5.769531 20.253906 -4.628906 19.609375 -3.484375 C 18.972656 -2.347656 17.988281 -1.40625 16.65625 -0.65625 C 15.332031 0.0820312 13.628906 0.453125 11.546875 0.453125 C 9.335938 0.453125 7.53125 -0.0351562 6.125 -1.015625 C 4.726562 -2.003906 3.695312 -3.332031 3.03125 -5 C 2.363281 -6.675781 2.03125 -8.53125 2.03125 -10.5625 L 2.03125 -11.46875 C 2.03125 -13.519531 2.351562 -15.375 3 -17.03125 C 3.65625 -18.695312 4.675781 -20.019531 6.0625 -21 C 7.445312 -21.988281 9.207031 -22.484375 11.34375 -22.484375 C 13.507812 -22.484375 15.269531 -21.988281 16.625 -21 C 17.976562 -20.019531 18.972656 -18.695312 19.609375 -17.03125 C 20.253906 -15.375 20.578125 -13.519531 20.578125 -11.46875 Z M 11.3125 -20.03125 C 9.226562 -20.03125 7.664062 -19.320312 6.625 -17.90625 C 5.59375 -16.5 5.046875 -14.601562 4.984375 -12.21875 L 17.625 -12.21875 C 17.539062 -14.601562 16.992188 -16.5 15.984375 -17.90625 C 14.972656 -19.320312 13.414062 -20.03125 11.3125 -20.03125 Z M 11.3125 -20.03125 "/></g></g></g><g fill="#000000" fill-opacity="1"><g transform="translate(274.351226, 277.618578)"><g><path d="M 16.453125 0 L 16 -3.078125 C 15.28125 -2.128906 14.28125 -1.300781 13 -0.59375 C 11.726562 0.101562 10.140625 0.453125 8.234375 0.453125 C 6.210938 0.453125 4.644531 -0.101562 3.53125 -1.21875 C 2.425781 -2.34375 1.875 -3.789062 1.875 -5.5625 L 1.875 -5.984375 C 1.875 -7.585938 2.222656 -8.835938 2.921875 -9.734375 C 3.628906 -10.640625 4.53125 -11.3125 5.625 -11.75 C 6.726562 -12.195312 7.875 -12.503906 9.0625 -12.671875 L 15.703125 -13.71875 L 15.703125 -14.296875 C 15.703125 -16.179688 15.34375 -17.609375 14.625 -18.578125 C 13.90625 -19.546875 12.5625 -20.03125 10.59375 -20.03125 C 9.207031 -20.03125 8.144531 -19.785156 7.40625 -19.296875 C 6.675781 -18.816406 6.171875 -18.179688 5.890625 -17.390625 C 5.617188 -16.597656 5.484375 -15.71875 5.484375 -14.75 L 2.703125 -14.75 L 2.703125 -15.125 C 2.703125 -15.957031 2.8125 -16.800781 3.03125 -17.65625 C 3.25 -18.519531 3.648438 -19.316406 4.234375 -20.046875 C 4.816406 -20.785156 5.628906 -21.375 6.671875 -21.8125 C 7.710938 -22.257812 9.035156 -22.484375 10.640625 -22.484375 C 12.691406 -22.484375 14.289062 -22.132812 15.4375 -21.4375 C 16.59375 -20.75 17.410156 -19.796875 17.890625 -18.578125 C 18.378906 -17.359375 18.625 -15.929688 18.625 -14.296875 L 18.625 -6.234375 L 18.875 0 Z M 8.984375 -2.078125 C 10.335938 -2.078125 11.460938 -2.273438 12.359375 -2.671875 C 13.265625 -3.078125 13.988281 -3.554688 14.53125 -4.109375 C 15.070312 -4.671875 15.460938 -5.15625 15.703125 -5.5625 L 15.703125 -11.59375 L 9.3125 -10.5625 C 7.894531 -10.3125 6.785156 -9.832031 5.984375 -9.125 C 5.179688 -8.414062 4.78125 -7.4375 4.78125 -6.1875 L 4.78125 -5.8125 C 4.78125 -4.84375 5.113281 -3.976562 5.78125 -3.21875 C 6.445312 -2.457031 7.515625 -2.078125 8.984375 -2.078125 Z M 8.984375 -2.078125 "/></g></g></g><g fill="#000000" fill-opacity="1"><g transform="translate(344.679577, 277.618578)"><g><path d="M 13.46875 0.453125 C 9.78125 0.453125 7.007812 -0.785156 5.15625 -3.265625 C 3.300781 -5.742188 2.375 -9.78125 2.375 -15.375 L 2.375 -17.046875 C 2.375 -22.671875 3.300781 -26.710938 5.15625 -29.171875 C 7.007812 -31.640625 9.78125 -32.875 13.46875 -32.875 C 17.175781 -32.875 19.957031 -31.640625 21.8125 -29.171875 C 23.675781 -26.710938 24.609375 -22.671875 24.609375 -17.046875 L 24.609375 -15.375 C 24.609375 -9.78125 23.675781 -5.742188 21.8125 -3.265625 C 19.957031 -0.785156 17.175781 0.453125 13.46875 0.453125 Z M 13.34375 -2.25 L 13.625 -2.25 C 16.34375 -2.25 18.335938 -3.285156 19.609375 -5.359375 C 20.890625 -7.441406 21.53125 -10.78125 21.53125 -15.375 L 21.53125 -17.046875 C 21.53125 -21.671875 20.890625 -25.015625 19.609375 -27.078125 C 18.335938 -29.140625 16.34375 -30.171875 13.625 -30.171875 L 13.34375 -30.171875 C 10.625 -30.171875 8.625 -29.140625 7.34375 -27.078125 C 6.070312 -25.015625 5.4375 -21.671875 5.4375 -17.046875 L 5.4375 -15.375 C 5.4375 -10.78125 6.070312 -7.441406 7.34375 -5.359375 C 8.625 -3.285156 10.625 -2.25 13.34375 -2.25 Z M 13.34375 -2.25 "/></g></g></g><g fill="#000000" fill-opacity="1"><g transform="translate(392.020676, 277.618578)"><g><path d="M 11.96875 -15.375 C 8.445312 -15.84375 5.953125 -16.828125 4.484375 -18.328125 C 3.015625 -19.828125 2.28125 -21.644531 2.28125 -23.78125 L 2.28125 -24.1875 C 2.28125 -26.90625 3.207031 -29.03125 5.0625 -30.5625 C 6.925781 -32.101562 9.394531 -32.875 12.46875 -32.875 C 16.09375 -32.875 18.703125 -31.972656 20.296875 -30.171875 C 21.890625 -28.367188 22.6875 -25.789062 22.6875 -22.4375 L 22.6875 -21.453125 L 19.703125 -21.453125 C 19.703125 -24.523438 19.132812 -26.742188 18 -28.109375 C 16.863281 -29.484375 15.0625 -30.171875 12.59375 -30.171875 L 12.296875 -30.171875 C 10.335938 -30.171875 8.691406 -29.671875 7.359375 -28.671875 C 6.023438 -27.679688 5.359375 -26.3125 5.359375 -24.5625 L 5.359375 -24.234375 C 5.359375 -23.097656 5.585938 -22.101562 6.046875 -21.25 C 6.503906 -20.40625 7.289062 -19.707031 8.40625 -19.15625 C 9.53125 -18.601562 11.09375 -18.1875 13.09375 -17.90625 C 16.632812 -17.4375 19.179688 -16.472656 20.734375 -15.015625 C 22.285156 -13.566406 23.0625 -11.597656 23.0625 -9.109375 L 23.0625 -8.6875 C 23.0625 -5.832031 22.101562 -3.59375 20.1875 -1.96875 C 18.28125 -0.351562 15.707031 0.453125 12.46875 0.453125 C 9.03125 0.453125 6.410156 -0.472656 4.609375 -2.328125 C 2.804688 -4.179688 1.90625 -6.785156 1.90625 -10.140625 L 1.90625 -10.5625 L 4.90625 -10.5625 C 4.90625 -7.707031 5.597656 -5.609375 6.984375 -4.265625 C 8.367188 -2.921875 10.15625 -2.25 12.34375 -2.25 L 12.640625 -2.25 C 14.847656 -2.25 16.625 -2.796875 17.96875 -3.890625 C 19.3125 -4.984375 19.984375 -6.515625 19.984375 -8.484375 L 19.984375 -8.859375 C 19.984375 -10.765625 19.351562 -12.226562 18.09375 -13.25 C 16.832031 -14.28125 14.789062 -14.988281 11.96875 -15.375 Z M 11.96875 -15.375 "/></g></g></g><g fill="#000000" fill-opacity="1"><g transform="translate(64.061392, 331.038848)"><g><path d="M 13.828125 -11.125 L 13.828125 -17.828125 L 17.34375 -17.828125 L 17.34375 0 L 13.828125 0 L 13.828125 -8.125 L 5.84375 -8.125 L 5.84375 0 L 2.3125 0 L 2.3125 -17.828125 L 5.84375 -17.828125 L 5.84375 -11.125 Z M 13.828125 -11.125 "/></g></g></g><g fill="#000000" fill-opacity="1"><g transform="translate(88.530408, 331.038848)"><g><path d="M 13.296875 -5.96875 L 4.640625 -5.96875 C 4.742188 -4.789062 5.078125 -3.9375 5.640625 -3.40625 C 6.210938 -2.875 6.992188 -2.609375 7.984375 -2.609375 C 8.753906 -2.609375 9.378906 -2.753906 9.859375 -3.046875 C 10.335938 -3.335938 10.722656 -3.773438 11.015625 -4.359375 L 11.265625 -4.359375 L 13.515625 -2.921875 C 13.078125 -1.972656 12.414062 -1.207031 11.53125 -0.625 C 10.644531 -0.0390625 9.460938 0.25 7.984375 0.25 C 6.585938 0.25 5.382812 -0.0078125 4.375 -0.53125 C 3.363281 -1.0625 2.582031 -1.847656 2.03125 -2.890625 C 1.476562 -3.941406 1.203125 -5.21875 1.203125 -6.71875 C 1.203125 -8.25 1.488281 -9.535156 2.0625 -10.578125 C 2.644531 -11.628906 3.425781 -12.414062 4.40625 -12.9375 C 5.394531 -13.457031 6.503906 -13.71875 7.734375 -13.71875 C 9.640625 -13.71875 11.097656 -13.210938 12.109375 -12.203125 C 13.117188 -11.191406 13.625 -9.710938 13.625 -7.765625 C 13.625 -7.054688 13.597656 -6.503906 13.546875 -6.109375 Z M 10.390625 -8.15625 C 10.359375 -9.175781 10.117188 -9.921875 9.671875 -10.390625 C 9.234375 -10.859375 8.585938 -11.09375 7.734375 -11.09375 C 6.023438 -11.09375 5.019531 -10.113281 4.71875 -8.15625 Z M 10.390625 -8.15625 "/></g></g></g><g fill="#000000" fill-opacity="1"><g transform="translate(107.950187, 331.038848)"><g><path d="M 5.25 0.25 C 4.382812 0.25 3.632812 0.09375 3 -0.21875 C 2.363281 -0.539062 1.875 -1.003906 1.53125 -1.609375 C 1.195312 -2.222656 1.03125 -2.960938 1.03125 -3.828125 C 1.03125 -4.628906 1.195312 -5.300781 1.53125 -5.84375 C 1.875 -6.382812 2.40625 -6.828125 3.125 -7.171875 C 3.84375 -7.515625 4.773438 -7.78125 5.921875 -7.96875 C 6.734375 -8.09375 7.347656 -8.234375 7.765625 -8.390625 C 8.179688 -8.546875 8.460938 -8.71875 8.609375 -8.90625 C 8.753906 -9.101562 8.828125 -9.351562 8.828125 -9.65625 C 8.828125 -10.09375 8.675781 -10.421875 8.375 -10.640625 C 8.070312 -10.867188 7.570312 -10.984375 6.875 -10.984375 C 6.132812 -10.984375 5.425781 -10.816406 4.75 -10.484375 C 4.070312 -10.148438 3.484375 -9.710938 2.984375 -9.171875 L 2.75 -9.171875 L 1.328125 -11.3125 C 2.015625 -12.0625 2.847656 -12.648438 3.828125 -13.078125 C 4.816406 -13.503906 5.890625 -13.71875 7.046875 -13.71875 C 8.828125 -13.71875 10.113281 -13.335938 10.90625 -12.578125 C 11.707031 -11.816406 12.109375 -10.742188 12.109375 -9.359375 L 12.109375 -3.515625 C 12.109375 -2.910156 12.375 -2.609375 12.90625 -2.609375 C 13.113281 -2.609375 13.3125 -2.644531 13.5 -2.71875 L 13.671875 -2.671875 L 13.921875 -0.3125 C 13.734375 -0.195312 13.472656 -0.0976562 13.140625 -0.015625 C 12.804688 0.0546875 12.441406 0.09375 12.046875 0.09375 C 11.234375 0.09375 10.601562 -0.0546875 10.15625 -0.359375 C 9.707031 -0.671875 9.382812 -1.15625 9.1875 -1.8125 L 8.9375 -1.84375 C 8.269531 -0.445312 7.039062 0.25 5.25 0.25 Z M 6.3125 -2.265625 C 7.09375 -2.265625 7.71875 -2.523438 8.1875 -3.046875 C 8.65625 -3.578125 8.890625 -4.3125 8.890625 -5.25 L 8.890625 -6.609375 L 8.65625 -6.65625 C 8.457031 -6.5 8.191406 -6.363281 7.859375 -6.25 C 7.535156 -6.144531 7.0625 -6.035156 6.4375 -5.921875 C 5.707031 -5.804688 5.179688 -5.597656 4.859375 -5.296875 C 4.535156 -5.003906 4.375 -4.582031 4.375 -4.03125 C 4.375 -3.457031 4.546875 -3.019531 4.890625 -2.71875 C 5.234375 -2.414062 5.707031 -2.265625 6.3125 -2.265625 Z M 6.3125 -2.265625 "/></g></g></g><g fill="#000000" fill-opacity="1"><g transform="translate(126.930901, 331.038848)"><g><path d="M 1.9375 0 L 1.9375 -13.453125 L 5.21875 -13.453125 L 5.21875 -11.453125 L 5.484375 -11.40625 C 5.804688 -12.15625 6.226562 -12.703125 6.75 -13.046875 C 7.28125 -13.398438 7.925781 -13.578125 8.6875 -13.578125 C 9.445312 -13.578125 10.03125 -13.445312 10.4375 -13.1875 L 9.859375 -10.265625 L 9.59375 -10.21875 C 9.375 -10.3125 9.160156 -10.378906 8.953125 -10.421875 C 8.753906 -10.460938 8.507812 -10.484375 8.21875 -10.484375 C 7.28125 -10.484375 6.5625 -10.148438 6.0625 -9.484375 C 5.5625 -8.816406 5.3125 -7.753906 5.3125 -6.296875 L 5.3125 0 Z M 1.9375 0 "/></g></g></g><g fill="#000000" fill-opacity="1"><g transform="translate(142.447898, 331.038848)"><g><path d="M 9.28125 -3.203125 L 10.15625 -0.703125 C 9.789062 -0.398438 9.332031 -0.164062 8.78125 0 C 8.226562 0.164062 7.601562 0.25 6.90625 0.25 C 5.445312 0.25 4.335938 -0.144531 3.578125 -0.9375 C 2.828125 -1.726562 2.453125 -2.878906 2.453125 -4.390625 L 2.453125 -10.78125 L 0.40625 -10.78125 L 0.40625 -13.46875 L 2.453125 -13.46875 L 2.453125 -16.09375 L 5.828125 -16.640625 L 5.828125 -13.46875 L 9.65625 -13.46875 L 9.65625 -10.78125 L 5.828125 -10.78125 L 5.828125 -4.640625 C 5.828125 -3.972656 5.960938 -3.484375 6.234375 -3.171875 C 6.515625 -2.867188 6.921875 -2.71875 7.453125 -2.71875 C 8.054688 -2.71875 8.582031 -2.878906 9.03125 -3.203125 Z M 9.28125 -3.203125 "/></g></g></g><g fill="#000000" fill-opacity="1"><g transform="translate(157.696567, 331.038848)"><g/></g></g><g fill="#000000" fill-opacity="1"><g transform="translate(168.383847, 331.038848)"><g><path d="M 7.8125 0.25 C 6.5 0.25 5.34375 -0.015625 4.34375 -0.546875 C 3.351562 -1.085938 2.582031 -1.878906 2.03125 -2.921875 C 1.476562 -3.972656 1.203125 -5.238281 1.203125 -6.71875 C 1.203125 -8.195312 1.476562 -9.460938 2.03125 -10.515625 C 2.582031 -11.566406 3.351562 -12.363281 4.34375 -12.90625 C 5.34375 -13.445312 6.5 -13.71875 7.8125 -13.71875 C 9.132812 -13.71875 10.289062 -13.445312 11.28125 -12.90625 C 12.28125 -12.363281 13.054688 -11.566406 13.609375 -10.515625 C 14.160156 -9.460938 14.4375 -8.195312 14.4375 -6.71875 C 14.4375 -5.238281 14.160156 -3.972656 13.609375 -2.921875 C 13.054688 -1.878906 12.28125 -1.085938 11.28125 -0.546875 C 10.289062 -0.015625 9.132812 0.25 7.8125 0.25 Z M 7.8125 -2.609375 C 9.90625 -2.609375 10.953125 -3.976562 10.953125 -6.71875 C 10.953125 -8.144531 10.679688 -9.1875 10.140625 -9.84375 C 9.609375 -10.507812 8.832031 -10.84375 7.8125 -10.84375 C 5.726562 -10.84375 4.6875 -9.46875 4.6875 -6.71875 C 4.6875 -3.976562 5.726562 -2.609375 7.8125 -2.609375 Z M 7.8125 -2.609375 "/></g></g></g><g fill="#000000" fill-opacity="1"><g transform="translate(188.815906, 331.038848)"><g><path d="M 2.359375 0 L 2.359375 -10.78125 L 0.453125 -10.78125 L 0.453125 -13.46875 L 2.359375 -13.46875 C 2.210938 -14.039062 2.140625 -14.570312 2.140625 -15.0625 C 2.140625 -15.914062 2.332031 -16.644531 2.71875 -17.25 C 3.113281 -17.863281 3.675781 -18.328125 4.40625 -18.640625 C 5.144531 -18.953125 6.019531 -19.109375 7.03125 -19.109375 C 8.519531 -19.109375 9.628906 -18.851562 10.359375 -18.34375 L 9.5625 -15.859375 L 9.3125 -15.8125 C 8.800781 -16.164062 8.15625 -16.34375 7.375 -16.34375 C 6.757812 -16.34375 6.296875 -16.191406 5.984375 -15.890625 C 5.679688 -15.597656 5.53125 -15.195312 5.53125 -14.6875 C 5.53125 -14.46875 5.546875 -14.265625 5.578125 -14.078125 C 5.609375 -13.898438 5.660156 -13.695312 5.734375 -13.46875 L 9.578125 -13.46875 L 9.578125 -10.78125 L 5.734375 -10.78125 L 5.734375 0 Z M 2.359375 0 "/></g></g></g><g fill="#000000" fill-opacity="1"><g transform="translate(203.3206, 331.038848)"><g/></g></g><g fill="#000000" fill-opacity="1"><g transform="translate(214.00788, 331.038848)"><g><path d="M 9.28125 -3.203125 L 10.15625 -0.703125 C 9.789062 -0.398438 9.332031 -0.164062 8.78125 0 C 8.226562 0.164062 7.601562 0.25 6.90625 0.25 C 5.445312 0.25 4.335938 -0.144531 3.578125 -0.9375 C 2.828125 -1.726562 2.453125 -2.878906 2.453125 -4.390625 L 2.453125 -10.78125 L 0.40625 -10.78125 L 0.40625 -13.46875 L 2.453125 -13.46875 L 2.453125 -16.09375 L 5.828125 -16.640625 L 5.828125 -13.46875 L 9.65625 -13.46875 L 9.65625 -10.78125 L 5.828125 -10.78125 L 5.828125 -4.640625 C 5.828125 -3.972656 5.960938 -3.484375 6.234375 -3.171875 C 6.515625 -2.867188 6.921875 -2.71875 7.453125 -2.71875 C 8.054688 -2.71875 8.582031 -2.878906 9.03125 -3.203125 Z M 9.28125 -3.203125 "/></g></g></g><g fill="#000000" fill-opacity="1"><g transform="translate(229.256549, 331.038848)"><g><path d="M 1.9375 0 L 1.9375 -18.859375 L 5.3125 -18.859375 L 5.3125 -11.703125 L 5.578125 -11.65625 C 6.023438 -12.3125 6.570312 -12.816406 7.21875 -13.171875 C 7.875 -13.535156 8.660156 -13.71875 9.578125 -13.71875 C 12.546875 -13.71875 14.03125 -12.03125 14.03125 -8.65625 L 14.03125 0 L 10.65625 0 L 10.65625 -8.234375 C 10.65625 -9.148438 10.46875 -9.816406 10.09375 -10.234375 C 9.726562 -10.648438 9.160156 -10.859375 8.390625 -10.859375 C 7.453125 -10.859375 6.703125 -10.539062 6.140625 -9.90625 C 5.585938 -9.28125 5.3125 -8.300781 5.3125 -6.96875 L 5.3125 0 Z M 1.9375 0 "/></g></g></g><g fill="#000000" fill-opacity="1"><g transform="translate(249.810571, 331.038848)"><g><path d="M 13.296875 -5.96875 L 4.640625 -5.96875 C 4.742188 -4.789062 5.078125 -3.9375 5.640625 -3.40625 C 6.210938 -2.875 6.992188 -2.609375 7.984375 -2.609375 C 8.753906 -2.609375 9.378906 -2.753906 9.859375 -3.046875 C 10.335938 -3.335938 10.722656 -3.773438 11.015625 -4.359375 L 11.265625 -4.359375 L 13.515625 -2.921875 C 13.078125 -1.972656 12.414062 -1.207031 11.53125 -0.625 C 10.644531 -0.0390625 9.460938 0.25 7.984375 0.25 C 6.585938 0.25 5.382812 -0.0078125 4.375 -0.53125 C 3.363281 -1.0625 2.582031 -1.847656 2.03125 -2.890625 C 1.476562 -3.941406 1.203125 -5.21875 1.203125 -6.71875 C 1.203125 -8.25 1.488281 -9.535156 2.0625 -10.578125 C 2.644531 -11.628906 3.425781 -12.414062 4.40625 -12.9375 C 5.394531 -13.457031 6.503906 -13.71875 7.734375 -13.71875 C 9.640625 -13.71875 11.097656 -13.210938 12.109375 -12.203125 C 13.117188 -11.191406 13.625 -9.710938 13.625 -7.765625 C 13.625 -7.054688 13.597656 -6.503906 13.546875 -6.109375 Z M 10.390625 -8.15625 C 10.359375 -9.175781 10.117188 -9.921875 9.671875 -10.390625 C 9.234375 -10.859375 8.585938 -11.09375 7.734375 -11.09375 C 6.023438 -11.09375 5.019531 -10.113281 4.71875 -8.15625 Z M 10.390625 -8.15625 "/></g></g></g><g fill="#000000" fill-opacity="1"><g transform="translate(269.230361, 331.038848)"><g/></g></g><g fill="#000000" fill-opacity="1"><g transform="translate(279.917618, 331.038848)"><g><path d="M 13.625 -17.828125 L 13.625 -14.890625 L 5.84375 -14.890625 L 5.84375 -10.15625 L 12.90625 -10.15625 L 12.90625 -7.25 L 5.84375 -7.25 L 5.84375 0 L 2.3125 0 L 2.3125 -17.828125 Z M 13.625 -17.828125 "/></g></g></g><g fill="#000000" fill-opacity="1"><g transform="translate(298.312867, 331.038848)"><g><path d="M 5.25 0.25 C 4.382812 0.25 3.632812 0.09375 3 -0.21875 C 2.363281 -0.539062 1.875 -1.003906 1.53125 -1.609375 C 1.195312 -2.222656 1.03125 -2.960938 1.03125 -3.828125 C 1.03125 -4.628906 1.195312 -5.300781 1.53125 -5.84375 C 1.875 -6.382812 2.40625 -6.828125 3.125 -7.171875 C 3.84375 -7.515625 4.773438 -7.78125 5.921875 -7.96875 C 6.734375 -8.09375 7.347656 -8.234375 7.765625 -8.390625 C 8.179688 -8.546875 8.460938 -8.71875 8.609375 -8.90625 C 8.753906 -9.101562 8.828125 -9.351562 8.828125 -9.65625 C 8.828125 -10.09375 8.675781 -10.421875 8.375 -10.640625 C 8.070312 -10.867188 7.570312 -10.984375 6.875 -10.984375 C 6.132812 -10.984375 5.425781 -10.816406 4.75 -10.484375 C 4.070312 -10.148438 3.484375 -9.710938 2.984375 -9.171875 L 2.75 -9.171875 L 1.328125 -11.3125 C 2.015625 -12.0625 2.847656 -12.648438 3.828125 -13.078125 C 4.816406 -13.503906 5.890625 -13.71875 7.046875 -13.71875 C 8.828125 -13.71875 10.113281 -13.335938 10.90625 -12.578125 C 11.707031 -11.816406 12.109375 -10.742188 12.109375 -9.359375 L 12.109375 -3.515625 C 12.109375 -2.910156 12.375 -2.609375 12.90625 -2.609375 C 13.113281 -2.609375 13.3125 -2.644531 13.5 -2.71875 L 13.671875 -2.671875 L 13.921875 -0.3125 C 13.734375 -0.195312 13.472656 -0.0976562 13.140625 -0.015625 C 12.804688 0.0546875 12.441406 0.09375 12.046875 0.09375 C 11.234375 0.09375 10.601562 -0.0546875 10.15625 -0.359375 C 9.707031 -0.671875 9.382812 -1.15625 9.1875 -1.8125 L 8.9375 -1.84375 C 8.269531 -0.445312 7.039062 0.25 5.25 0.25 Z M 6.3125 -2.265625 C 7.09375 -2.265625 7.71875 -2.523438 8.1875 -3.046875 C 8.65625 -3.578125 8.890625 -4.3125 8.890625 -5.25 L 8.890625 -6.609375 L 8.65625 -6.65625 C 8.457031 -6.5 8.191406 -6.363281 7.859375 -6.25 C 7.535156 -6.144531 7.0625 -6.035156 6.4375 -5.921875 C 5.707031 -5.804688 5.179688 -5.597656 4.859375 -5.296875 C 4.535156 -5.003906 4.375 -4.582031 4.375 -4.03125 C 4.375 -3.457031 4.546875 -3.019531 4.890625 -2.71875 C 5.234375 -2.414062 5.707031 -2.265625 6.3125 -2.265625 Z M 6.3125 -2.265625 "/></g></g></g><g fill="#000000" fill-opacity="1"><g transform="translate(317.293581, 331.038848)"><g><path d="M 7.84375 0.25 C 6.539062 0.25 5.390625 -0.015625 4.390625 -0.546875 C 3.390625 -1.085938 2.609375 -1.882812 2.046875 -2.9375 C 1.484375 -3.988281 1.203125 -5.25 1.203125 -6.71875 C 1.203125 -8.195312 1.484375 -9.460938 2.046875 -10.515625 C 2.609375 -11.566406 3.382812 -12.363281 4.375 -12.90625 C 5.375 -13.445312 6.507812 -13.71875 7.78125 -13.71875 C 10.625 -13.71875 12.441406 -12.6875 13.234375 -10.625 L 10.921875 -8.96875 L 10.65625 -8.96875 C 10.382812 -9.601562 10.023438 -10.070312 9.578125 -10.375 C 9.140625 -10.6875 8.539062 -10.84375 7.78125 -10.84375 C 6.800781 -10.84375 6.039062 -10.503906 5.5 -9.828125 C 4.957031 -9.148438 4.6875 -8.113281 4.6875 -6.71875 C 4.6875 -5.332031 4.960938 -4.300781 5.515625 -3.625 C 6.066406 -2.945312 6.84375 -2.609375 7.84375 -2.609375 C 8.570312 -2.609375 9.191406 -2.804688 9.703125 -3.203125 C 10.210938 -3.597656 10.578125 -4.164062 10.796875 -4.90625 L 11.046875 -4.921875 L 13.453125 -3.609375 C 13.109375 -2.472656 12.472656 -1.546875 11.546875 -0.828125 C 10.628906 -0.109375 9.394531 0.25 7.84375 0.25 Z M 7.84375 0.25 "/></g></g></g><g fill="#000000" fill-opacity="1"><g transform="translate(335.957182, 331.038848)"><g><path d="M 9.28125 -3.203125 L 10.15625 -0.703125 C 9.789062 -0.398438 9.332031 -0.164062 8.78125 0 C 8.226562 0.164062 7.601562 0.25 6.90625 0.25 C 5.445312 0.25 4.335938 -0.144531 3.578125 -0.9375 C 2.828125 -1.726562 2.453125 -2.878906 2.453125 -4.390625 L 2.453125 -10.78125 L 0.40625 -10.78125 L 0.40625 -13.46875 L 2.453125 -13.46875 L 2.453125 -16.09375 L 5.828125 -16.640625 L 5.828125 -13.46875 L 9.65625 -13.46875 L 9.65625 -10.78125 L 5.828125 -10.78125 L 5.828125 -4.640625 C 5.828125 -3.972656 5.960938 -3.484375 6.234375 -3.171875 C 6.515625 -2.867188 6.921875 -2.71875 7.453125 -2.71875 C 8.054688 -2.71875 8.582031 -2.878906 9.03125 -3.203125 Z M 9.28125 -3.203125 "/></g></g></g><g fill="#000000" fill-opacity="1"><g transform="translate(351.047295, 331.038848)"><g><path d="M 7.8125 0.25 C 6.5 0.25 5.34375 -0.015625 4.34375 -0.546875 C 3.351562 -1.085938 2.582031 -1.878906 2.03125 -2.921875 C 1.476562 -3.972656 1.203125 -5.238281 1.203125 -6.71875 C 1.203125 -8.195312 1.476562 -9.460938 2.03125 -10.515625 C 2.582031 -11.566406 3.351562 -12.363281 4.34375 -12.90625 C 5.34375 -13.445312 6.5 -13.71875 7.8125 -13.71875 C 9.132812 -13.71875 10.289062 -13.445312 11.28125 -12.90625 C 12.28125 -12.363281 13.054688 -11.566406 13.609375 -10.515625 C 14.160156 -9.460938 14.4375 -8.195312 14.4375 -6.71875 C 14.4375 -5.238281 14.160156 -3.972656 13.609375 -2.921875 C 13.054688 -1.878906 12.28125 -1.085938 11.28125 -0.546875 C 10.289062 -0.015625 9.132812 0.25 7.8125 0.25 Z M 7.8125 -2.609375 C 9.90625 -2.609375 10.953125 -3.976562 10.953125 -6.71875 C 10.953125 -8.144531 10.679688 -9.1875 10.140625 -9.84375 C 9.609375 -10.507812 8.832031 -10.84375 7.8125 -10.84375 C 5.726562 -10.84375 4.6875 -9.46875 4.6875 -6.71875 C 4.6875 -3.976562 5.726562 -2.609375 7.8125 -2.609375 Z M 7.8125 -2.609375 "/></g></g></g><g fill="#000000" fill-opacity="1"><g transform="translate(371.479365, 331.038848)"><g><path d="M 1.9375 0 L 1.9375 -13.453125 L 5.21875 -13.453125 L 5.21875 -11.453125 L 5.484375 -11.40625 C 5.804688 -12.15625 6.226562 -12.703125 6.75 -13.046875 C 7.28125 -13.398438 7.925781 -13.578125 8.6875 -13.578125 C 9.445312 -13.578125 10.03125 -13.445312 10.4375 -13.1875 L 9.859375 -10.265625 L 9.59375 -10.21875 C 9.375 -10.3125 9.160156 -10.378906 8.953125 -10.421875 C 8.753906 -10.460938 8.507812 -10.484375 8.21875 -10.484375 C 7.28125 -10.484375 6.5625 -10.148438 6.0625 -9.484375 C 5.5625 -8.816406 5.3125 -7.753906 5.3125 -6.296875 L 5.3125 0 Z M 1.9375 0 "/></g></g></g><g fill="#000000" fill-opacity="1"><g transform="translate(386.996351, 331.038848)"><g><path d="M 2.984375 5.703125 C 2.398438 5.703125 1.875 5.65625 1.40625 5.5625 C 0.9375 5.476562 0.554688 5.363281 0.265625 5.21875 L 0.8125 2.484375 L 1.03125 2.421875 C 1.226562 2.523438 1.476562 2.609375 1.78125 2.671875 C 2.082031 2.734375 2.390625 2.765625 2.703125 2.765625 C 3.253906 2.765625 3.707031 2.691406 4.0625 2.546875 C 4.425781 2.410156 4.734375 2.175781 4.984375 1.84375 C 5.242188 1.519531 5.46875 1.0625 5.65625 0.46875 L 0.296875 -13.453125 L 3.828125 -13.453125 L 7.171875 -4.09375 L 7.46875 -4.09375 L 10.71875 -13.453125 L 14.15625 -13.453125 L 8.765625 0.84375 C 8.328125 2 7.847656 2.925781 7.328125 3.625 C 6.816406 4.332031 6.207031 4.851562 5.5 5.1875 C 4.800781 5.53125 3.960938 5.703125 2.984375 5.703125 Z M 2.984375 5.703125 "/></g></g></g><g fill="#000000" fill-opacity="1"><g transform="translate(406.233204, 331.038848)"><g/></g></g><g fill="#000000" fill-opacity="1"><g transform="translate(416.920461, 331.038848)"><g><path d="M 5.4375 -5.921875 L 2.390625 -5.921875 L 2.140625 -17.828125 L 5.6875 -17.828125 Z M 3.921875 0.125 C 3.492188 0.125 3.117188 0.0390625 2.796875 -0.125 C 2.472656 -0.300781 2.222656 -0.539062 2.046875 -0.84375 C 1.878906 -1.144531 1.796875 -1.484375 1.796875 -1.859375 C 1.796875 -2.234375 1.878906 -2.570312 2.046875 -2.875 C 2.222656 -3.1875 2.472656 -3.425781 2.796875 -3.59375 C 3.117188 -3.769531 3.492188 -3.859375 3.921875 -3.859375 C 4.554688 -3.859375 5.066406 -3.671875 5.453125 -3.296875 C 5.835938 -2.921875 6.03125 -2.441406 6.03125 -1.859375 C 6.03125 -1.285156 5.835938 -0.8125 5.453125 -0.4375 C 5.066406 -0.0625 4.554688 0.125 3.921875 0.125 Z M 3.921875 0.125 "/></g></g></g></svg>