<svg xmlns="http://www.w3.org/2000/svg" xmlns:xlink="http://www.w3.org/1999/xlink" width="448" zoomAndPan="magnify" viewBox="0 0 336 289.499996" height="386" preserveAspectRatio="xMidYMid meet" version="1.0"><defs><g/><clipPath id="e327b53a7a"><path d="M 11.53125 198 L 306.410156 198 L 306.410156 203 L 11.53125 203 Z M 11.53125 198 " clip-rule="nonzero"/></clipPath><clipPath id="f9b4060dea"><path d="M 51 206 L 267 206 L 267 210.386719 L 51 210.386719 Z M 51 206 " clip-rule="nonzero"/></clipPath></defs><path fill="#000000" d="M 239.375 103.800781 L 261.25 120.933594 L 261.777344 196.191406 L 259.011719 122.152344 Z M 178.304688 105.8125 L 232.339844 96.324219 L 230.492188 173.554688 L 228.910156 100.738281 Z M 172.371094 124.988281 L 173.425781 172.566406 L 168.945312 128.941406 L 56.917969 139.617188 Z M 53.34375 137.25 L 66.855469 135.285156 L 69.222656 81.820312 L 75.574219 81.820312 L 77.765625 131.34375 L 72.597656 134.40625 L 109.429688 129.089844 L 112.207031 66.425781 L 120.050781 66.421875 L 122.640625 124.882812 L 117.667969 127.890625 L 152.496094 122.828125 L 155.539062 54.105469 L 164.007812 54.105469 L 166.859375 118.492188 L 162.148438 121.449219 L 174.980469 119.558594 L 174.980469 103.375 L 200.628906 98.449219 L 203.460938 34.476562 L 211.929688 34.476562 L 214.488281 92.265625 L 207.921875 97.074219 L 233.101562 92.214844 L 264.613281 119.191406 L 264.613281 199.21875 L 53.34375 199.21875 Z M 53.34375 137.25 " fill-opacity="1" fill-rule="evenodd"/><g clip-path="url(#e327b53a7a)"><path fill="#000000" d="M 36.148438 198.480469 L 281.808594 198.480469 C 295.414062 198.480469 306.539062 199.40625 306.539062 200.535156 C 306.539062 201.660156 295.414062 202.582031 281.808594 202.582031 L 36.148438 202.582031 C 22.546875 202.582031 11.417969 201.660156 11.417969 200.535156 C 11.417969 199.40625 22.546875 198.480469 36.148438 198.480469 " fill-opacity="1" fill-rule="evenodd"/></g><g clip-path="url(#f9b4060dea)"><path fill="#000000" d="M 76.214844 206.519531 L 241.742188 206.519531 C 255.34375 206.519531 266.472656 207.445312 266.472656 208.574219 C 266.472656 209.699219 255.34375 210.621094 241.742188 210.621094 L 76.214844 210.621094 C 62.613281 210.621094 51.484375 209.699219 51.484375 208.574219 C 51.484375 207.445312 62.613281 206.519531 76.214844 206.519531 " fill-opacity="1" fill-rule="evenodd"/></g><path fill="#000000" d="M 205.34375 32.621094 C 205.34375 32.621094 211.3125 29.363281 208.753906 24.867188 C 208.753906 24.867188 214.570312 20.292969 211.082031 15.332031 C 211.082031 15.332031 211.082031 8.664062 203.949219 8.820312 C 196.816406 8.972656 196.195312 13.703125 196.195312 13.703125 C 196.195312 13.703125 196.429688 9.90625 199.296875 8.121094 C 199.296875 8.121094 188.675781 2.074219 183.789062 9.75 C 183.789062 9.75 186.117188 5.796875 187.046875 5.253906 C 187.046875 5.253906 173.710938 3.625 173.324219 12.460938 C 172.9375 21.300781 159.449219 0.136719 156.734375 8.972656 C 154.019531 17.8125 152.390625 18.511719 146.191406 19.050781 C 139.988281 19.59375 130.21875 14.789062 131.613281 22.542969 C 133.011719 30.292969 121.769531 24.324219 121.769531 24.324219 C 121.769531 24.324219 124.40625 29.441406 130.21875 29.671875 C 136.035156 29.90625 139.910156 22.308594 147.199219 23.394531 C 154.484375 24.480469 147.507812 30.449219 158.828125 29.285156 C 170.148438 28.121094 172.085938 21.457031 172.085938 21.457031 C 172.085938 21.457031 172.859375 26.417969 167.742188 28.199219 C 167.742188 28.199219 173.324219 33.316406 178.675781 28.746094 C 184.023438 24.167969 185.652344 21.378906 185.652344 21.378906 C 185.652344 21.378906 181.851562 27.890625 181.386719 28.277344 C 180.921875 28.664062 183.328125 33.394531 187.976562 31.535156 C 192.628906 29.671875 193.792969 27.660156 193.792969 27.660156 C 193.792969 27.660156 191.855469 30.992188 189.605469 32.078125 C 189.605469 32.078125 194.800781 33.085938 197.980469 30.449219 C 201.15625 27.8125 206.429688 28.046875 205.34375 32.621094 " fill-opacity="1" fill-rule="evenodd"/><path fill="#000000" d="M 114.242188 65.007812 C 114.242188 65.007812 118.164062 62.867188 116.480469 59.914062 C 116.480469 59.914062 120.300781 56.910156 118.011719 53.652344 C 118.011719 53.652344 118.011719 49.269531 113.324219 49.371094 C 108.640625 49.476562 108.234375 52.582031 108.234375 52.582031 C 108.234375 52.582031 108.386719 50.085938 110.269531 48.914062 C 110.269531 48.914062 103.292969 44.941406 100.085938 49.984375 C 100.085938 49.984375 101.613281 47.386719 102.222656 47.03125 C 102.222656 47.03125 93.464844 45.960938 93.210938 51.769531 C 92.957031 57.574219 84.09375 43.667969 82.3125 49.476562 C 80.53125 55.28125 79.460938 55.738281 75.386719 56.097656 C 71.3125 56.453125 64.894531 53.296875 65.8125 58.386719 C 66.730469 63.480469 59.34375 59.558594 59.34375 59.558594 C 59.34375 59.558594 61.074219 62.917969 64.894531 63.074219 C 68.714844 63.226562 71.257812 58.234375 76.046875 58.949219 C 80.832031 59.660156 76.25 63.582031 83.6875 62.820312 C 91.121094 62.054688 92.394531 57.675781 92.394531 57.675781 C 92.394531 57.675781 92.902344 60.933594 89.542969 62.105469 C 89.542969 62.105469 93.207031 65.464844 96.722656 62.460938 C 100.234375 59.457031 101.304688 57.625 101.304688 57.625 C 101.304688 57.625 98.808594 61.902344 98.503906 62.15625 C 98.199219 62.410156 99.777344 65.519531 102.832031 64.296875 C 105.890625 63.074219 106.652344 61.75 106.652344 61.75 C 106.652344 61.75 105.378906 63.941406 103.902344 64.652344 C 103.902344 64.652344 107.316406 65.316406 109.402344 63.582031 C 111.492188 61.851562 114.953125 62.003906 114.242188 65.007812 " fill-opacity="1" fill-rule="evenodd"/><g fill="#000000" fill-opacity="1"><g transform="translate(41.125363, 265.974953)"><g><path d="M 2.265625 -23.828125 L 15.0625 -23.828125 L 15.0625 -21.84375 L 4.453125 -21.84375 L 4.453125 -13.140625 L 13.53125 -13.140625 L 13.53125 -11.1875 L 4.453125 -11.1875 L 4.453125 0 L 2.265625 0 Z M 2.265625 -23.828125 "/></g></g></g><g fill="#000000" fill-opacity="1"><g transform="translate(71.029859, 265.974953)"><g><path d="M 8.3125 0.34375 C 6.71875 0.34375 5.421875 -0.015625 4.421875 -0.734375 C 3.429688 -1.460938 2.695312 -2.4375 2.21875 -3.65625 C 1.738281 -4.882812 1.5 -6.242188 1.5 -7.734375 L 1.5 -8.46875 C 1.5 -9.96875 1.738281 -11.320312 2.21875 -12.53125 C 2.695312 -13.75 3.429688 -14.71875 4.421875 -15.4375 C 5.421875 -16.164062 6.71875 -16.53125 8.3125 -16.53125 C 9.894531 -16.53125 11.191406 -16.164062 12.203125 -15.4375 C 13.210938 -14.71875 13.953125 -13.75 14.421875 -12.53125 C 14.890625 -11.320312 15.125 -9.96875 15.125 -8.46875 L 15.125 -7.734375 C 15.125 -6.242188 14.890625 -4.882812 14.421875 -3.65625 C 13.953125 -2.4375 13.210938 -1.460938 12.203125 -0.734375 C 11.191406 -0.015625 9.894531 0.34375 8.3125 0.34375 Z M 8.3125 -1.59375 C 9.914062 -1.59375 11.085938 -2.148438 11.828125 -3.265625 C 12.578125 -4.390625 12.953125 -5.878906 12.953125 -7.734375 L 12.953125 -8.46875 C 12.953125 -10.3125 12.578125 -11.789062 11.828125 -12.90625 C 11.085938 -14.03125 9.914062 -14.59375 8.3125 -14.59375 C 6.695312 -14.59375 5.519531 -14.03125 4.78125 -12.90625 C 4.039062 -11.789062 3.671875 -10.3125 3.671875 -8.46875 L 3.671875 -7.734375 C 3.671875 -5.878906 4.039062 -4.390625 4.78125 -3.265625 C 5.519531 -2.148438 6.695312 -1.59375 8.3125 -1.59375 Z M 8.3125 -1.59375 "/></g></g></g><g fill="#000000" fill-opacity="1"><g transform="translate(102.614376, 265.974953)"><g><path d="M 8.4375 -16.53125 C 8.53125 -16.53125 8.625 -16.523438 8.71875 -16.515625 C 8.8125 -16.503906 8.867188 -16.5 8.890625 -16.5 L 8.890625 -14.453125 L 8.46875 -14.453125 C 7.644531 -14.453125 6.953125 -14.320312 6.390625 -14.0625 C 5.835938 -13.8125 5.378906 -13.5 5.015625 -13.125 C 4.660156 -12.75 4.375 -12.375 4.15625 -12 L 4.15625 0 L 2.015625 0 L 2.015625 -11.609375 L 1.828125 -16.1875 L 3.609375 -16.1875 L 3.90625 -14.046875 C 4.332031 -14.722656 4.921875 -15.304688 5.671875 -15.796875 C 6.429688 -16.285156 7.351562 -16.53125 8.4375 -16.53125 Z M 8.4375 -16.53125 "/></g></g></g><g fill="#000000" fill-opacity="1"><g transform="translate(127.020807, 265.974953)"><g><path d="M 12.28125 0.03125 L 12.28125 -2.96875 C 11.832031 -2.351562 11.238281 -1.84375 10.5 -1.4375 C 9.769531 -1.03125 8.835938 -0.828125 7.703125 -0.828125 C 6.234375 -0.828125 5.039062 -1.164062 4.125 -1.84375 C 3.207031 -2.53125 2.539062 -3.441406 2.125 -4.578125 C 1.707031 -5.722656 1.5 -6.976562 1.5 -8.34375 L 1.5 -9.015625 C 1.5 -10.378906 1.707031 -11.625 2.125 -12.75 C 2.539062 -13.882812 3.207031 -14.796875 4.125 -15.484375 C 5.039062 -16.179688 6.234375 -16.53125 7.703125 -16.53125 C 8.941406 -16.53125 9.945312 -16.285156 10.71875 -15.796875 C 11.488281 -15.304688 12.09375 -14.710938 12.53125 -14.015625 L 12.828125 -16.1875 L 14.59375 -16.1875 L 14.421875 -11.609375 L 14.421875 0.15625 C 14.421875 1.351562 14.210938 2.429688 13.796875 3.390625 C 13.378906 4.347656 12.707031 5.097656 11.78125 5.640625 C 10.851562 6.179688 9.613281 6.453125 8.0625 6.453125 C 6.519531 6.453125 5.289062 6.175781 4.375 5.625 C 3.457031 5.070312 2.796875 4.335938 2.390625 3.421875 C 1.992188 2.503906 1.796875 1.492188 1.796875 0.390625 L 1.796875 0 L 3.84375 0 C 3.84375 1.53125 4.160156 2.675781 4.796875 3.4375 C 5.441406 4.195312 6.519531 4.578125 8.03125 4.578125 C 9.601562 4.578125 10.703125 4.191406 11.328125 3.421875 C 11.960938 2.648438 12.28125 1.519531 12.28125 0.03125 Z M 12.28125 -12.09375 C 12.050781 -12.457031 11.757812 -12.832031 11.40625 -13.21875 C 11.050781 -13.613281 10.609375 -13.941406 10.078125 -14.203125 C 9.546875 -14.460938 8.90625 -14.59375 8.15625 -14.59375 C 6.644531 -14.59375 5.519531 -14.078125 4.78125 -13.046875 C 4.039062 -12.023438 3.671875 -10.679688 3.671875 -9.015625 L 3.671875 -8.34375 C 3.671875 -6.644531 4.039062 -5.285156 4.78125 -4.265625 C 5.519531 -3.253906 6.644531 -2.75 8.15625 -2.75 C 8.90625 -2.75 9.546875 -2.878906 10.078125 -3.140625 C 10.609375 -3.410156 11.050781 -3.738281 11.40625 -4.125 C 11.757812 -4.507812 12.050781 -4.875 12.28125 -5.21875 Z M 12.28125 -12.09375 "/></g></g></g><g fill="#000000" fill-opacity="1"><g transform="translate(158.391506, 265.974953)"><g><path d="M 15.125 -7.203125 L 3.671875 -7.203125 C 3.710938 -5.429688 4.125 -4.03125 4.90625 -3 C 5.6875 -1.976562 6.878906 -1.46875 8.484375 -1.46875 C 9.566406 -1.46875 10.441406 -1.65625 11.109375 -2.03125 C 11.785156 -2.40625 12.28125 -2.882812 12.59375 -3.46875 C 12.914062 -4.050781 13.078125 -4.625 13.078125 -5.1875 L 15.125 -5.1875 L 15.125 -5.078125 C 15.125 -4.234375 14.890625 -3.394531 14.421875 -2.5625 C 13.953125 -1.726562 13.226562 -1.035156 12.25 -0.484375 C 11.269531 0.0664062 10.015625 0.34375 8.484375 0.34375 C 6.859375 0.34375 5.53125 -0.015625 4.5 -0.734375 C 3.476562 -1.460938 2.722656 -2.441406 2.234375 -3.671875 C 1.742188 -4.910156 1.5 -6.273438 1.5 -7.765625 L 1.5 -8.4375 C 1.5 -9.9375 1.738281 -11.296875 2.21875 -12.515625 C 2.695312 -13.742188 3.441406 -14.71875 4.453125 -15.4375 C 5.472656 -16.164062 6.769531 -16.53125 8.34375 -16.53125 C 9.925781 -16.53125 11.21875 -16.164062 12.21875 -15.4375 C 13.21875 -14.71875 13.953125 -13.742188 14.421875 -12.515625 C 14.890625 -11.296875 15.125 -9.9375 15.125 -8.4375 Z M 8.3125 -14.71875 C 6.78125 -14.71875 5.632812 -14.195312 4.875 -13.15625 C 4.113281 -12.125 3.710938 -10.734375 3.671875 -8.984375 L 12.953125 -8.984375 C 12.890625 -10.734375 12.484375 -12.125 11.734375 -13.15625 C 10.992188 -14.195312 9.851562 -14.71875 8.3125 -14.71875 Z M 8.3125 -14.71875 "/></g></g></g><g fill="#000000" fill-opacity="1"><g transform="translate(189.976022, 265.974953)"><g><path d="M 12.09375 0 L 11.765625 -2.265625 C 11.234375 -1.566406 10.5 -0.957031 9.5625 -0.4375 C 8.625 0.0820312 7.453125 0.34375 6.046875 0.34375 C 4.554688 0.34375 3.40625 -0.0664062 2.59375 -0.890625 C 1.78125 -1.722656 1.375 -2.789062 1.375 -4.09375 L 1.375 -4.40625 C 1.375 -5.582031 1.632812 -6.5 2.15625 -7.15625 C 2.675781 -7.820312 3.335938 -8.316406 4.140625 -8.640625 C 4.941406 -8.972656 5.78125 -9.195312 6.65625 -9.3125 L 11.546875 -10.078125 L 11.546875 -10.515625 C 11.546875 -11.890625 11.28125 -12.929688 10.75 -13.640625 C 10.21875 -14.359375 9.234375 -14.71875 7.796875 -14.71875 C 6.773438 -14.71875 5.992188 -14.539062 5.453125 -14.1875 C 4.910156 -13.832031 4.535156 -13.363281 4.328125 -12.78125 C 4.128906 -12.195312 4.03125 -11.550781 4.03125 -10.84375 L 1.984375 -10.84375 L 1.984375 -11.125 C 1.984375 -11.726562 2.0625 -12.34375 2.21875 -12.96875 C 2.382812 -13.601562 2.679688 -14.191406 3.109375 -14.734375 C 3.535156 -15.273438 4.128906 -15.707031 4.890625 -16.03125 C 5.660156 -16.363281 6.632812 -16.53125 7.8125 -16.53125 C 9.320312 -16.53125 10.5 -16.273438 11.34375 -15.765625 C 12.1875 -15.253906 12.785156 -14.550781 13.140625 -13.65625 C 13.503906 -12.757812 13.6875 -11.710938 13.6875 -10.515625 L 13.6875 -4.578125 L 13.875 0 Z M 6.59375 -1.53125 C 7.59375 -1.53125 8.421875 -1.675781 9.078125 -1.96875 C 9.742188 -2.257812 10.273438 -2.609375 10.671875 -3.015625 C 11.066406 -3.429688 11.359375 -3.789062 11.546875 -4.09375 L 11.546875 -8.515625 L 6.84375 -7.765625 C 5.800781 -7.578125 4.984375 -7.222656 4.390625 -6.703125 C 3.804688 -6.179688 3.515625 -5.460938 3.515625 -4.546875 L 3.515625 -4.28125 C 3.515625 -3.5625 3.757812 -2.921875 4.25 -2.359375 C 4.738281 -1.804688 5.519531 -1.53125 6.59375 -1.53125 Z M 6.59375 -1.53125 "/></g></g></g><g fill="#000000" fill-opacity="1"><g transform="translate(220.583106, 265.974953)"><g/></g></g><g fill="#000000" fill-opacity="1"><g transform="translate(241.660216, 265.974953)"><g><path d="M 9.890625 0.34375 C 7.179688 0.34375 5.144531 -0.566406 3.78125 -2.390625 C 2.414062 -4.210938 1.734375 -7.179688 1.734375 -11.296875 L 1.734375 -12.53125 C 1.734375 -16.65625 2.414062 -19.625 3.78125 -21.4375 C 5.144531 -23.25 7.179688 -24.15625 9.890625 -24.15625 C 12.617188 -24.15625 14.664062 -23.25 16.03125 -21.4375 C 17.394531 -19.625 18.078125 -16.65625 18.078125 -12.53125 L 18.078125 -11.296875 C 18.078125 -7.179688 17.394531 -4.210938 16.03125 -2.390625 C 14.664062 -0.566406 12.617188 0.34375 9.890625 0.34375 Z M 9.8125 -1.65625 L 10.015625 -1.65625 C 12.015625 -1.65625 13.484375 -2.414062 14.421875 -3.9375 C 15.359375 -5.46875 15.828125 -7.921875 15.828125 -11.296875 L 15.828125 -12.53125 C 15.828125 -15.925781 15.359375 -18.378906 14.421875 -19.890625 C 13.484375 -21.410156 12.015625 -22.171875 10.015625 -22.171875 L 9.8125 -22.171875 C 7.8125 -22.171875 6.34375 -21.410156 5.40625 -19.890625 C 4.46875 -18.378906 4 -15.925781 4 -12.53125 L 4 -11.296875 C 4 -7.921875 4.46875 -5.46875 5.40625 -3.9375 C 6.34375 -2.414062 7.8125 -1.65625 9.8125 -1.65625 Z M 9.8125 -1.65625 "/></g></g></g><g fill="#000000" fill-opacity="1"><g transform="translate(276.451916, 265.974953)"><g><path d="M 8.796875 -11.296875 C 6.210938 -11.648438 4.378906 -12.375 3.296875 -13.46875 C 2.222656 -14.570312 1.6875 -15.90625 1.6875 -17.46875 L 1.6875 -17.78125 C 1.6875 -19.769531 2.363281 -21.328125 3.71875 -22.453125 C 5.082031 -23.585938 6.898438 -24.15625 9.171875 -24.15625 C 11.835938 -24.15625 13.753906 -23.492188 14.921875 -22.171875 C 16.085938 -20.847656 16.671875 -18.957031 16.671875 -16.5 L 16.671875 -15.765625 L 14.484375 -15.765625 C 14.484375 -18.023438 14.0625 -19.65625 13.21875 -20.65625 C 12.382812 -21.664062 11.0625 -22.171875 9.25 -22.171875 L 9.046875 -22.171875 C 7.597656 -22.171875 6.382812 -21.804688 5.40625 -21.078125 C 4.425781 -20.347656 3.9375 -19.335938 3.9375 -18.046875 L 3.9375 -17.8125 C 3.9375 -16.976562 4.101562 -16.25 4.4375 -15.625 C 4.78125 -15 5.363281 -14.484375 6.1875 -14.078125 C 7.007812 -13.671875 8.15625 -13.367188 9.625 -13.171875 C 12.226562 -12.816406 14.097656 -12.101562 15.234375 -11.03125 C 16.378906 -9.96875 16.953125 -8.519531 16.953125 -6.6875 L 16.953125 -6.390625 C 16.953125 -4.285156 16.25 -2.632812 14.84375 -1.4375 C 13.4375 -0.25 11.546875 0.34375 9.171875 0.34375 C 6.640625 0.34375 4.710938 -0.335938 3.390625 -1.703125 C 2.066406 -3.066406 1.40625 -4.984375 1.40625 -7.453125 L 1.40625 -7.765625 L 3.609375 -7.765625 C 3.609375 -5.660156 4.113281 -4.113281 5.125 -3.125 C 6.144531 -2.144531 7.460938 -1.65625 9.078125 -1.65625 L 9.28125 -1.65625 C 10.914062 -1.65625 12.222656 -2.054688 13.203125 -2.859375 C 14.191406 -3.660156 14.6875 -4.785156 14.6875 -6.234375 L 14.6875 -6.5 C 14.6875 -7.90625 14.222656 -8.984375 13.296875 -9.734375 C 12.367188 -10.492188 10.867188 -11.015625 8.796875 -11.296875 Z M 8.796875 -11.296875 "/></g></g></g></svg>